G04 ================== begin FILE IDENTIFICATION RECORD ==================*
G04 Layout Name:  C:/Users/JAI HANUMAN/Desktop/final_1040/final_1040_board.brd*
G04 Film Name:    silkscreen*
G04 File Format:  Gerber RS274X*
G04 File Origin:  Cadence Allegro 16.5-P002*
G04 Origin Date:  Sat Apr 20 00:18:00 2013*
G04 *
G04 Layer:  PACKAGE GEOMETRY/ASSEMBLY_TOP*
G04 Layer:  PACKAGE GEOMETRY/DISPLAY_TOP*
G04 Layer:  REF DES/SILKSCREEN_TOP*
G04 Layer:  PACKAGE GEOMETRY/SILKSCREEN_TOP*
G04 Layer:  MANUFACTURING/PHOTOPLOT_OUTLINE*
G04 Layer:  MANUFACTURING/AUTOSILK_TOP*
G04 Layer:  BOARD GEOMETRY/OUTLINE*
G04 Layer:  BOARD GEOMETRY/SILKSCREEN_TOP*
G04 *
G04 Offset:    (0.00 0.00)*
G04 Mirror:    No*
G04 Mode:      Positive*
G04 Rotation:  0*
G04 FullContactRelief:  No*
G04 UndefLineWidth:     6.00*
G04 ================== end FILE IDENTIFICATION RECORD ====================*
%FSLAX25Y25*MOIN*%
%IR0*IPPOS*OFA0.00000B0.00000*MIA0B0*SFA1.00000B1.00000*%
%ADD10C,.006*%
%ADD11C,.00004*%
%ADD12C,.00394*%
%ADD13C,.00984*%
%ADD14C,.00787*%
G75*
%LPD*%
G75*
G54D10*
G01X-75400Y50600D02*
Y-50200D01*
X74980D01*
Y50600D01*
X-75400D01*
G01X-75000Y-50000D02*
Y50000D01*
X75000D01*
Y-50000D01*
X-75000D01*
G01X-32175Y-26600D02*
Y-36600D01*
X-52175D01*
Y-26600D01*
X-32175D01*
G01D02*
Y-36600D01*
X-52175D01*
Y-26600D01*
X-32175D01*
G01D02*
X-52175D01*
Y-36600D01*
X-32175D01*
Y-26600D01*
G01X-43123Y-22720D02*
X-43315Y-22410D01*
X-43545Y-22203D01*
X-43813Y-22100D01*
X-44120Y-22203D01*
X-44350Y-22410D01*
X-44580Y-22720D01*
X-44657Y-23133D01*
Y-25200D01*
G01X-46262Y-24683D02*
X-46492Y-24993D01*
X-46760Y-25148D01*
X-47067Y-25200D01*
X-47450Y-25097D01*
X-47718Y-24838D01*
X-47795Y-24528D01*
X-47757Y-24218D01*
X-47603Y-23960D01*
X-46837Y-23443D01*
X-46492Y-23082D01*
X-46262Y-22565D01*
X-46185Y-22100D01*
X-47795D01*
G01X-43123Y-22720D02*
X-43315Y-22410D01*
X-43545Y-22203D01*
X-43813Y-22100D01*
X-44120Y-22203D01*
X-44350Y-22410D01*
X-44580Y-22720D01*
X-44657Y-23133D01*
Y-25200D01*
G01X-46262Y-24683D02*
X-46492Y-24993D01*
X-46760Y-25148D01*
X-47067Y-25200D01*
X-47450Y-25097D01*
X-47718Y-24838D01*
X-47795Y-24528D01*
X-47757Y-24218D01*
X-47603Y-23960D01*
X-46837Y-23443D01*
X-46492Y-23082D01*
X-46262Y-22565D01*
X-46185Y-22100D01*
X-47795D01*
G01X-64200Y-7007D02*
X-59200D01*
Y-4474D01*
G01Y-643D02*
X-64200D01*
X-63200Y-1402D01*
G01X-59200D02*
Y117D01*
G01X-64200Y-7007D02*
X-59200D01*
Y-4474D01*
G01Y-643D02*
X-64200D01*
X-63200Y-1402D01*
G01X-59200D02*
Y117D01*
G01X-40443Y22720D02*
X-40635Y23030D01*
X-40865Y23237D01*
X-41133Y23340D01*
X-41440Y23237D01*
X-41670Y23030D01*
X-41900Y22720D01*
X-41977Y22307D01*
Y20240D01*
G01X-44310Y23340D02*
Y20240D01*
X-43850Y20860D01*
G01Y23340D02*
X-44770D01*
G01X-40443Y22720D02*
X-40635Y23030D01*
X-40865Y23237D01*
X-41133Y23340D01*
X-41440Y23237D01*
X-41670Y23030D01*
X-41900Y22720D01*
X-41977Y22307D01*
Y20240D01*
G01X-44310Y23340D02*
Y20240D01*
X-43850Y20860D01*
G01Y23340D02*
X-44770D01*
G01X-52492Y9663D02*
Y-4313D01*
X-20208D01*
Y9663D01*
X-52492D01*
G01D02*
Y-4313D01*
X-20208D01*
Y9663D01*
X-52492D01*
G01D02*
Y-4313D01*
G01X-32400Y35150D02*
Y25150D01*
X-52400D01*
Y35150D01*
X-32400D01*
G01D02*
Y25150D01*
X-52400D01*
Y35150D01*
X-32400D01*
G01D02*
X-52400D01*
Y25150D01*
X-32400D01*
Y35150D01*
G01X-15733Y-38840D02*
Y-43840D01*
X-17317D01*
X-17823Y-43590D01*
X-18140Y-43257D01*
X-18267Y-42590D01*
X-18140Y-41923D01*
X-17760Y-41507D01*
X-17317Y-41257D01*
X-15733D01*
G01X-17317D02*
X-18267Y-38840D01*
G01X-20770Y-39507D02*
X-21277Y-39090D01*
X-21847Y-38840D01*
X-22353D01*
X-22860Y-39090D01*
X-23240Y-39507D01*
X-23430Y-40090D01*
X-23303Y-40673D01*
X-22987Y-41173D01*
X-22417Y-41507D01*
X-21657Y-41673D01*
X-21213Y-42007D01*
X-21023Y-42590D01*
X-21150Y-43173D01*
X-21467Y-43590D01*
X-21910Y-43840D01*
X-22353D01*
X-22797Y-43673D01*
X-23177Y-43257D01*
G01X-27200Y-38840D02*
Y-43840D01*
X-26440Y-42840D01*
G01Y-38840D02*
X-27960D01*
G01X-15733D02*
Y-43840D01*
X-17317D01*
X-17823Y-43590D01*
X-18140Y-43257D01*
X-18267Y-42590D01*
X-18140Y-41923D01*
X-17760Y-41507D01*
X-17317Y-41257D01*
X-15733D01*
G01X-17317D02*
X-18267Y-38840D01*
G01X-20770Y-39507D02*
X-21277Y-39090D01*
X-21847Y-38840D01*
X-22353D01*
X-22860Y-39090D01*
X-23240Y-39507D01*
X-23430Y-40090D01*
X-23303Y-40673D01*
X-22987Y-41173D01*
X-22417Y-41507D01*
X-21657Y-41673D01*
X-21213Y-42007D01*
X-21023Y-42590D01*
X-21150Y-43173D01*
X-21467Y-43590D01*
X-21910Y-43840D01*
X-22353D01*
X-22797Y-43673D01*
X-23177Y-43257D01*
G01X-27200Y-38840D02*
Y-43840D01*
X-26440Y-42840D01*
G01Y-38840D02*
X-27960D01*
G01X-11580Y-20883D02*
X-16580D01*
Y-19617D01*
X-16330Y-19110D01*
X-15997Y-18730D01*
X-15497Y-18413D01*
X-14913Y-18160D01*
X-14080Y-18097D01*
X-13247Y-18160D01*
X-12663Y-18413D01*
X-12163Y-18730D01*
X-11830Y-19110D01*
X-11580Y-19617D01*
Y-20883D01*
G01X-12247Y-15720D02*
X-11830Y-15213D01*
X-11580Y-14643D01*
Y-14137D01*
X-11830Y-13630D01*
X-12247Y-13250D01*
X-12830Y-13060D01*
X-13413Y-13187D01*
X-13913Y-13503D01*
X-14247Y-14073D01*
X-14413Y-14833D01*
X-14747Y-15277D01*
X-15330Y-15467D01*
X-15913Y-15340D01*
X-16330Y-15023D01*
X-16580Y-14580D01*
Y-14137D01*
X-16413Y-13693D01*
X-15997Y-13313D01*
G01X-11580Y-20883D02*
X-16580D01*
Y-19617D01*
X-16330Y-19110D01*
X-15997Y-18730D01*
X-15497Y-18413D01*
X-14913Y-18160D01*
X-14080Y-18097D01*
X-13247Y-18160D01*
X-12663Y-18413D01*
X-12163Y-18730D01*
X-11830Y-19110D01*
X-11580Y-19617D01*
Y-20883D01*
G01X-12247Y-15720D02*
X-11830Y-15213D01*
X-11580Y-14643D01*
Y-14137D01*
X-11830Y-13630D01*
X-12247Y-13250D01*
X-12830Y-13060D01*
X-13413Y-13187D01*
X-13913Y-13503D01*
X-14247Y-14073D01*
X-14413Y-14833D01*
X-14747Y-15277D01*
X-15330Y-15467D01*
X-15913Y-15340D01*
X-16330Y-15023D01*
X-16580Y-14580D01*
Y-14137D01*
X-16413Y-13693D01*
X-15997Y-13313D01*
G01X-17323Y-3377D02*
X-17573Y-3757D01*
X-17740Y-4200D01*
Y-4707D01*
X-17490Y-5277D01*
X-17073Y-5720D01*
X-16573Y-6037D01*
X-15740Y-6290D01*
X-14990Y-6353D01*
X-14240Y-6227D01*
X-13740Y-6037D01*
X-13240Y-5657D01*
X-12907Y-5213D01*
X-12740Y-4770D01*
Y-4327D01*
X-12907Y-3883D01*
X-13157Y-3503D01*
X-13490Y-3187D01*
G01X-12740Y330D02*
X-12823Y-177D01*
X-13157Y-620D01*
X-13657Y-1000D01*
X-14240Y-1253D01*
X-14907Y-1380D01*
X-15573D01*
X-16240Y-1253D01*
X-16823Y-1000D01*
X-17323Y-620D01*
X-17657Y-177D01*
X-17740Y330D01*
X-17657Y837D01*
X-17323Y1280D01*
X-16823Y1660D01*
X-16240Y1913D01*
X-15573Y2040D01*
X-14907D01*
X-14240Y1913D01*
X-13657Y1660D01*
X-13157Y1280D01*
X-12823Y837D01*
X-12740Y330D01*
G01X-17740Y4037D02*
X-14157D01*
X-13407Y4290D01*
X-12907Y4797D01*
X-12740Y5430D01*
X-12907Y6063D01*
X-13407Y6570D01*
X-14157Y6823D01*
X-17740D01*
G01Y10530D02*
X-12740D01*
G01X-17740Y9073D02*
Y11987D01*
G01X-17323Y-3377D02*
X-17573Y-3757D01*
X-17740Y-4200D01*
Y-4707D01*
X-17490Y-5277D01*
X-17073Y-5720D01*
X-16573Y-6037D01*
X-15740Y-6290D01*
X-14990Y-6353D01*
X-14240Y-6227D01*
X-13740Y-6037D01*
X-13240Y-5657D01*
X-12907Y-5213D01*
X-12740Y-4770D01*
Y-4327D01*
X-12907Y-3883D01*
X-13157Y-3503D01*
X-13490Y-3187D01*
G01X-12740Y330D02*
X-12823Y-177D01*
X-13157Y-620D01*
X-13657Y-1000D01*
X-14240Y-1253D01*
X-14907Y-1380D01*
X-15573D01*
X-16240Y-1253D01*
X-16823Y-1000D01*
X-17323Y-620D01*
X-17657Y-177D01*
X-17740Y330D01*
X-17657Y837D01*
X-17323Y1280D01*
X-16823Y1660D01*
X-16240Y1913D01*
X-15573Y2040D01*
X-14907D01*
X-14240Y1913D01*
X-13657Y1660D01*
X-13157Y1280D01*
X-12823Y837D01*
X-12740Y330D01*
G01X-17740Y4037D02*
X-14157D01*
X-13407Y4290D01*
X-12907Y4797D01*
X-12740Y5430D01*
X-12907Y6063D01*
X-13407Y6570D01*
X-14157Y6823D01*
X-17740D01*
G01Y10530D02*
X-12740D01*
G01X-17740Y9073D02*
Y11987D01*
G01X-20208Y-4313D02*
Y9663D01*
G01X-18663Y18593D02*
X-18913Y18213D01*
X-19080Y17770D01*
Y17263D01*
X-18830Y16693D01*
X-18413Y16250D01*
X-17913Y15933D01*
X-17080Y15680D01*
X-16330Y15617D01*
X-15580Y15743D01*
X-15080Y15933D01*
X-14580Y16313D01*
X-14247Y16757D01*
X-14080Y17200D01*
Y17643D01*
X-14247Y18087D01*
X-14497Y18467D01*
X-14830Y18783D01*
G01X-19080Y21540D02*
Y23060D01*
G01Y22300D02*
X-14080D01*
G01Y21540D02*
Y23060D01*
G01Y25943D02*
X-19080D01*
X-14080Y28857D01*
X-19080D01*
G01X-18663Y18593D02*
X-18913Y18213D01*
X-19080Y17770D01*
Y17263D01*
X-18830Y16693D01*
X-18413Y16250D01*
X-17913Y15933D01*
X-17080Y15680D01*
X-16330Y15617D01*
X-15580Y15743D01*
X-15080Y15933D01*
X-14580Y16313D01*
X-14247Y16757D01*
X-14080Y17200D01*
Y17643D01*
X-14247Y18087D01*
X-14497Y18467D01*
X-14830Y18783D01*
G01X-19080Y21540D02*
Y23060D01*
G01Y22300D02*
X-14080D01*
G01Y21540D02*
Y23060D01*
G01Y25943D02*
X-19080D01*
X-14080Y28857D01*
X-19080D01*
G01X11247Y-46680D02*
Y-44180D01*
X11940Y-46263D01*
X12633Y-44180D01*
Y-46680D01*
G01X14140D02*
X13927Y-46638D01*
X13740Y-46472D01*
X13580Y-46222D01*
X13473Y-45930D01*
X13420Y-45597D01*
Y-45263D01*
X13473Y-44930D01*
X13580Y-44638D01*
X13740Y-44388D01*
X13927Y-44222D01*
X14140Y-44180D01*
X14353Y-44222D01*
X14540Y-44388D01*
X14700Y-44638D01*
X14807Y-44930D01*
X14860Y-45263D01*
Y-45597D01*
X14807Y-45930D01*
X14700Y-46222D01*
X14540Y-46472D01*
X14353Y-46638D01*
X14140Y-46680D01*
G01X15780D02*
X16900Y-44180D01*
G01X15780D02*
X16900Y-46680D01*
G01X18220Y-44180D02*
X18860D01*
G01X18540D02*
Y-46680D01*
G01X18220D02*
X18860D01*
G01X21273D02*
X20207D01*
Y-44180D01*
X21273D01*
G01X20847Y-45388D02*
X20207D01*
G01X24553Y-46680D02*
Y-44180D01*
X25087D01*
X25300Y-44305D01*
X25460Y-44472D01*
X25593Y-44722D01*
X25700Y-45013D01*
X25727Y-45430D01*
X25700Y-45847D01*
X25593Y-46138D01*
X25460Y-46388D01*
X25300Y-46555D01*
X25087Y-46680D01*
X24553D01*
G01X27873D02*
X26807D01*
Y-44180D01*
X27873D01*
G01X27447Y-45388D02*
X26807D01*
G01X28873Y-44180D02*
X29540Y-46680D01*
X30207Y-44180D01*
G01X31420D02*
X32060D01*
G01X31740D02*
Y-46680D01*
G01X31420D02*
X32060D01*
G01X34527Y-44388D02*
X34367Y-44263D01*
X34180Y-44180D01*
X33967D01*
X33727Y-44305D01*
X33540Y-44513D01*
X33407Y-44763D01*
X33300Y-45180D01*
X33273Y-45555D01*
X33327Y-45930D01*
X33407Y-46180D01*
X33567Y-46430D01*
X33753Y-46597D01*
X33940Y-46680D01*
X34127D01*
X34313Y-46597D01*
X34473Y-46472D01*
X34607Y-46305D01*
G01X36673Y-46680D02*
X35607D01*
Y-44180D01*
X36673D01*
G01X36247Y-45388D02*
X35607D01*
G01X37780Y-46347D02*
X37993Y-46555D01*
X38233Y-46680D01*
X38447D01*
X38660Y-46555D01*
X38820Y-46347D01*
X38900Y-46055D01*
X38847Y-45763D01*
X38713Y-45513D01*
X38473Y-45347D01*
X38153Y-45263D01*
X37967Y-45097D01*
X37887Y-44805D01*
X37940Y-44513D01*
X38073Y-44305D01*
X38260Y-44180D01*
X38447D01*
X38633Y-44263D01*
X38793Y-44472D01*
G01X9247Y-3100D02*
Y-8100D01*
X7663D01*
X7157Y-7850D01*
X6840Y-7517D01*
X6713Y-6850D01*
X6840Y-6183D01*
X7220Y-5767D01*
X7663Y-5517D01*
X9247D01*
G01X7663D02*
X6713Y-3100D01*
G01X4083D02*
Y-8100D01*
X1677D01*
G01X2563Y-5683D02*
X4083D01*
G01X-2220Y-3100D02*
Y-8100D01*
X-1460Y-7100D01*
G01Y-3100D02*
X-2980D01*
G01X9047Y-3300D02*
Y-8300D01*
X7463D01*
X6957Y-8050D01*
X6640Y-7717D01*
X6513Y-7050D01*
X6640Y-6383D01*
X7020Y-5967D01*
X7463Y-5717D01*
X9047D01*
G01X7463D02*
X6513Y-3300D01*
G01X3883D02*
Y-8300D01*
X1477D01*
G01X2363Y-5883D02*
X3883D01*
G01X-2420Y-3300D02*
Y-8300D01*
X-1660Y-7300D01*
G01Y-3300D02*
X-3180D01*
G01X35063Y-22100D02*
Y-27100D01*
X33797D01*
X33290Y-26850D01*
X32910Y-26517D01*
X32593Y-26017D01*
X32340Y-25433D01*
X32277Y-24600D01*
X32340Y-23767D01*
X32593Y-23183D01*
X32910Y-22683D01*
X33290Y-22350D01*
X33797Y-22100D01*
X35063D01*
G01X28570D02*
X29077Y-22183D01*
X29520Y-22517D01*
X29900Y-23017D01*
X30153Y-23600D01*
X30280Y-24267D01*
Y-24933D01*
X30153Y-25600D01*
X29900Y-26183D01*
X29520Y-26683D01*
X29077Y-27017D01*
X28570Y-27100D01*
X28063Y-27017D01*
X27620Y-26683D01*
X27240Y-26183D01*
X26987Y-25600D01*
X26860Y-24933D01*
Y-24267D01*
X26987Y-23600D01*
X27240Y-23017D01*
X27620Y-22517D01*
X28063Y-22183D01*
X28570Y-22100D01*
G01X24863Y-27100D02*
Y-23517D01*
X24610Y-22767D01*
X24103Y-22267D01*
X23470Y-22100D01*
X22837Y-22267D01*
X22330Y-22767D01*
X22077Y-23517D01*
Y-27100D01*
G01X18370D02*
Y-22100D01*
G01X19827Y-27100D02*
X16913D01*
G01X35063Y-22100D02*
Y-27100D01*
X33797D01*
X33290Y-26850D01*
X32910Y-26517D01*
X32593Y-26017D01*
X32340Y-25433D01*
X32277Y-24600D01*
X32340Y-23767D01*
X32593Y-23183D01*
X32910Y-22683D01*
X33290Y-22350D01*
X33797Y-22100D01*
X35063D01*
G01X28570D02*
X29077Y-22183D01*
X29520Y-22517D01*
X29900Y-23017D01*
X30153Y-23600D01*
X30280Y-24267D01*
Y-24933D01*
X30153Y-25600D01*
X29900Y-26183D01*
X29520Y-26683D01*
X29077Y-27017D01*
X28570Y-27100D01*
X28063Y-27017D01*
X27620Y-26683D01*
X27240Y-26183D01*
X26987Y-25600D01*
X26860Y-24933D01*
Y-24267D01*
X26987Y-23600D01*
X27240Y-23017D01*
X27620Y-22517D01*
X28063Y-22183D01*
X28570Y-22100D01*
G01X24863Y-27100D02*
Y-23517D01*
X24610Y-22767D01*
X24103Y-22267D01*
X23470Y-22100D01*
X22837Y-22267D01*
X22330Y-22767D01*
X22077Y-23517D01*
Y-27100D01*
G01X18370D02*
Y-22100D01*
G01X19827Y-27100D02*
X16913D01*
G01X8557Y39660D02*
Y34660D01*
X6973D01*
X6467Y34910D01*
X6150Y35243D01*
X6023Y35910D01*
X6150Y36577D01*
X6530Y36993D01*
X6973Y37243D01*
X8557D01*
G01X6973D02*
X6023Y39660D01*
G01X3583Y38660D02*
X3203Y39243D01*
X2697Y39577D01*
X2127Y39660D01*
X1620Y39577D01*
X1113Y39160D01*
X797Y38660D01*
X733Y38160D01*
X860Y37577D01*
X1303Y37160D01*
X1747Y36993D01*
X2317D01*
G01X1747D02*
X1367Y36743D01*
X1050Y36327D01*
X923Y35827D01*
X1050Y35327D01*
X1367Y34910D01*
X1937Y34660D01*
X2507Y34743D01*
X3077Y35077D01*
G01X8557Y39660D02*
Y34660D01*
X6973D01*
X6467Y34910D01*
X6150Y35243D01*
X6023Y35910D01*
X6150Y36577D01*
X6530Y36993D01*
X6973Y37243D01*
X8557D01*
G01X6973D02*
X6023Y39660D01*
G01X3583Y38660D02*
X3203Y39243D01*
X2697Y39577D01*
X2127Y39660D01*
X1620Y39577D01*
X1113Y39160D01*
X797Y38660D01*
X733Y38160D01*
X860Y37577D01*
X1303Y37160D01*
X1747Y36993D01*
X2317D01*
G01X1747D02*
X1367Y36743D01*
X1050Y36327D01*
X923Y35827D01*
X1050Y35327D01*
X1367Y34910D01*
X1937Y34660D01*
X2507Y34743D01*
X3077Y35077D01*
G01X-1063Y33920D02*
Y30337D01*
X-810Y29587D01*
X-303Y29087D01*
X330Y28920D01*
X963Y29087D01*
X1470Y29587D01*
X1723Y30337D01*
Y33920D01*
G01X5430Y28920D02*
Y33920D01*
X4670Y32920D01*
G01Y28920D02*
X6190D01*
G01X-1063Y34120D02*
Y30537D01*
X-810Y29787D01*
X-303Y29287D01*
X330Y29120D01*
X963Y29287D01*
X1470Y29787D01*
X1723Y30537D01*
Y34120D01*
G01X5430Y29120D02*
Y34120D01*
X4670Y33120D01*
G01Y29120D02*
X6190D01*
G01X46360Y21877D02*
X51360D01*
Y20293D01*
X51110Y19787D01*
X50777Y19470D01*
X50110Y19343D01*
X49443Y19470D01*
X49027Y19850D01*
X48777Y20293D01*
Y21877D01*
G01Y20293D02*
X46360Y19343D01*
G01Y15510D02*
X51360D01*
X50360Y16270D01*
G01X46360D02*
Y14750D01*
G01X46440Y21777D02*
X51440D01*
Y20193D01*
X51190Y19687D01*
X50857Y19370D01*
X50190Y19243D01*
X49523Y19370D01*
X49107Y19750D01*
X48857Y20193D01*
Y21777D01*
G01Y20193D02*
X46440Y19243D01*
G01Y15410D02*
X51440D01*
X50440Y16170D01*
G01X46440D02*
Y14650D01*
G01X40967Y100D02*
Y-4900D01*
X39383D01*
X38877Y-4650D01*
X38560Y-4317D01*
X38433Y-3650D01*
X38560Y-2983D01*
X38940Y-2567D01*
X39383Y-2317D01*
X40967D01*
G01X39383D02*
X38433Y100D01*
G01X34600D02*
Y-4900D01*
X35360Y-3900D01*
G01Y100D02*
X33840D01*
G01X29500D02*
Y-4900D01*
X30260Y-3900D01*
G01Y100D02*
X28740D01*
G01X40967D02*
Y-4900D01*
X39383D01*
X38877Y-4650D01*
X38560Y-4317D01*
X38433Y-3650D01*
X38560Y-2983D01*
X38940Y-2567D01*
X39383Y-2317D01*
X40967D01*
G01X39383D02*
X38433Y100D01*
G01X34600D02*
Y-4900D01*
X35360Y-3900D01*
G01Y100D02*
X33840D01*
G01X29500D02*
Y-4900D01*
X30260Y-3900D01*
G01Y100D02*
X28740D01*
G01X45627Y23917D02*
X46007Y23667D01*
X46450Y23500D01*
X46957D01*
X47527Y23750D01*
X47970Y24167D01*
X48287Y24667D01*
X48540Y25500D01*
X48603Y26250D01*
X48477Y27000D01*
X48287Y27500D01*
X47907Y28000D01*
X47463Y28333D01*
X47020Y28500D01*
X46577D01*
X46133Y28333D01*
X45753Y28083D01*
X45437Y27750D01*
G01X43123Y28500D02*
Y23500D01*
X40717D01*
G01X41603Y25917D02*
X43123D01*
G01X36820Y28500D02*
Y23500D01*
X37580Y24500D01*
G01Y28500D02*
X36060D01*
G01X45627Y23917D02*
X46007Y23667D01*
X46450Y23500D01*
X46957D01*
X47527Y23750D01*
X47970Y24167D01*
X48287Y24667D01*
X48540Y25500D01*
X48603Y26250D01*
X48477Y27000D01*
X48287Y27500D01*
X47907Y28000D01*
X47463Y28333D01*
X47020Y28500D01*
X46577D01*
X46133Y28333D01*
X45753Y28083D01*
X45437Y27750D01*
G01X43123Y28500D02*
Y23500D01*
X40717D01*
G01X41603Y25917D02*
X43123D01*
G01X36820Y28500D02*
Y23500D01*
X37580Y24500D01*
G01Y28500D02*
X36060D01*
G01X59857Y-5497D02*
X59607Y-5877D01*
X59440Y-6320D01*
Y-6827D01*
X59690Y-7397D01*
X60107Y-7840D01*
X60607Y-8157D01*
X61440Y-8410D01*
X62190Y-8473D01*
X62940Y-8347D01*
X63440Y-8157D01*
X63940Y-7777D01*
X64273Y-7333D01*
X64440Y-6890D01*
Y-6447D01*
X64273Y-6003D01*
X64023Y-5623D01*
X63690Y-5307D01*
G01X60273Y-2993D02*
X59773Y-2613D01*
X59523Y-2170D01*
X59440Y-1663D01*
X59607Y-1030D01*
X60023Y-587D01*
X60523Y-460D01*
X61023Y-523D01*
X61440Y-777D01*
X62273Y-2043D01*
X62857Y-2613D01*
X63690Y-2993D01*
X64440Y-3120D01*
Y-460D01*
G01X60057Y-5497D02*
X59807Y-5877D01*
X59640Y-6320D01*
Y-6827D01*
X59890Y-7397D01*
X60307Y-7840D01*
X60807Y-8157D01*
X61640Y-8410D01*
X62390Y-8473D01*
X63140Y-8347D01*
X63640Y-8157D01*
X64140Y-7777D01*
X64473Y-7333D01*
X64640Y-6890D01*
Y-6447D01*
X64473Y-6003D01*
X64223Y-5623D01*
X63890Y-5307D01*
G01X60473Y-2993D02*
X59973Y-2613D01*
X59723Y-2170D01*
X59640Y-1663D01*
X59807Y-1030D01*
X60223Y-587D01*
X60723Y-460D01*
X61223Y-523D01*
X61640Y-777D01*
X62473Y-2043D01*
X63057Y-2613D01*
X63890Y-2993D01*
X64640Y-3120D01*
Y-460D01*
G01X56957Y-23877D02*
X56707Y-24257D01*
X56540Y-24700D01*
Y-25207D01*
X56790Y-25777D01*
X57207Y-26220D01*
X57707Y-26537D01*
X58540Y-26790D01*
X59290Y-26853D01*
X60040Y-26727D01*
X60540Y-26537D01*
X61040Y-26157D01*
X61373Y-25713D01*
X61540Y-25270D01*
Y-24827D01*
X61373Y-24383D01*
X61123Y-24003D01*
X60790Y-23687D01*
G01X61540Y-19410D02*
X56540D01*
X60123Y-21753D01*
Y-18587D01*
G01X56957Y-23877D02*
X56707Y-24257D01*
X56540Y-24700D01*
Y-25207D01*
X56790Y-25777D01*
X57207Y-26220D01*
X57707Y-26537D01*
X58540Y-26790D01*
X59290Y-26853D01*
X60040Y-26727D01*
X60540Y-26537D01*
X61040Y-26157D01*
X61373Y-25713D01*
X61540Y-25270D01*
Y-24827D01*
X61373Y-24383D01*
X61123Y-24003D01*
X60790Y-23687D01*
G01X61540Y-19410D02*
X56540D01*
X60123Y-21753D01*
Y-18587D01*
G01X60920Y20207D02*
X65920D01*
Y18623D01*
X65670Y18117D01*
X65337Y17800D01*
X64670Y17673D01*
X64003Y17800D01*
X63587Y18180D01*
X63337Y18623D01*
Y20207D01*
G01Y18623D02*
X60920Y17673D01*
G01Y15043D02*
X65920D01*
Y12637D01*
G01X63503Y13523D02*
Y15043D01*
G01X65087Y9943D02*
X65587Y9563D01*
X65837Y9120D01*
X65920Y8613D01*
X65753Y7980D01*
X65337Y7537D01*
X64837Y7410D01*
X64337Y7473D01*
X63920Y7727D01*
X63087Y8993D01*
X62503Y9563D01*
X61670Y9943D01*
X60920Y10070D01*
Y7410D01*
G01Y20407D02*
X65920D01*
Y18823D01*
X65670Y18317D01*
X65337Y18000D01*
X64670Y17873D01*
X64003Y18000D01*
X63587Y18380D01*
X63337Y18823D01*
Y20407D01*
G01Y18823D02*
X60920Y17873D01*
G01Y15243D02*
X65920D01*
Y12837D01*
G01X63503Y13723D02*
Y15243D01*
G01X65087Y10143D02*
X65587Y9763D01*
X65837Y9320D01*
X65920Y8813D01*
X65753Y8180D01*
X65337Y7737D01*
X64837Y7610D01*
X64337Y7673D01*
X63920Y7927D01*
X63087Y9193D01*
X62503Y9763D01*
X61670Y10143D01*
X60920Y10270D01*
Y7610D01*
G01X-75400Y50600D02*
Y-50200D01*
X74980D01*
Y50600D01*
X-75400D01*
G54D11*
G01X-19969Y-32591D02*
X-25481D01*
Y-24009D01*
X-19969D01*
Y-32591D01*
G01X-10704Y10531D02*
X-4996D01*
Y1869D01*
X-10704D01*
Y10531D01*
G01X-4796Y17769D02*
X-10504D01*
Y26431D01*
X-4796D01*
Y17769D01*
G01X-2257Y-29360D02*
X-9343D01*
Y-18140D01*
X-2257D01*
Y-29360D01*
G01X37049Y-6993D02*
Y-18607D01*
X15001D01*
Y-6993D01*
X37049D01*
G01X12741Y6056D02*
Y544D01*
X4159D01*
Y6056D01*
X12741D01*
G01X6842Y13523D02*
Y25727D01*
X24558D01*
Y13523D01*
X6842D01*
G01X23091Y36206D02*
Y30694D01*
X14509D01*
Y36206D01*
X23091D01*
G01X54704Y-26031D02*
X48996D01*
Y-17369D01*
X54704D01*
Y-26031D01*
G01X39994Y15866D02*
X45506D01*
Y7284D01*
X39994D01*
Y15866D01*
G01X31966Y8331D02*
Y2819D01*
X23384D01*
Y8331D01*
X31966D01*
G01X48331Y36104D02*
Y30396D01*
X39669D01*
Y36104D01*
X48331D01*
G01X57379Y-7431D02*
X51671D01*
Y1231D01*
X57379D01*
Y-7431D01*
G01X52794Y18966D02*
X58306D01*
Y10384D01*
X52794D01*
Y18966D01*
G54D12*
G01X-20225Y-32296D02*
X-25225D01*
Y-24304D01*
X-20225D01*
Y-32296D01*
G01X-10311Y10137D02*
X-5389D01*
Y2263D01*
X-10311D01*
Y10137D01*
G01X-5189Y18163D02*
X-10111D01*
Y26037D01*
X-5189D01*
Y18163D01*
G01X-2650Y-26309D02*
X-8950D01*
G01X-2650Y-26703D02*
X-8950D01*
G01X-2650Y-27096D02*
X-8950D01*
G01X-2650Y-27490D02*
X-8950D01*
G01X-2650Y-27884D02*
X-8950D01*
G01X-2650Y-28278D02*
X-8950D01*
G01X-2650Y-28671D02*
X-8950D01*
G01X-2650Y-29065D02*
X-8950D01*
Y-18435D01*
X-2650D01*
Y-29065D01*
G01X36261Y-7682D02*
Y-17918D01*
X15789D01*
Y-7682D01*
X36261D01*
G01X12446Y5800D02*
Y800D01*
X4454D01*
Y5800D01*
X12446D01*
G01X7039Y13719D02*
Y25531D01*
X24361D01*
Y13719D01*
X7039D01*
G01X10976Y25531D02*
X7039Y21594D01*
G01X10582Y25531D02*
X7039Y21987D01*
G01X10188Y25531D02*
X7039Y22381D01*
G01X9794Y25531D02*
X7039Y22775D01*
G01X9401Y25531D02*
X7039Y23168D01*
G01X9007Y25531D02*
X7039Y23562D01*
G01X8613Y25531D02*
X7039Y23956D01*
G01X8220Y25531D02*
X7039Y24349D01*
G01X7826Y25531D02*
X7039Y24743D01*
G01X7432Y25531D02*
X7039Y25137D01*
G01X22796Y35950D02*
Y30950D01*
X14804D01*
Y35950D01*
X22796D01*
G01X54311Y-25637D02*
X49389D01*
Y-17763D01*
X54311D01*
Y-25637D01*
G01X33505Y-7682D02*
Y-17918D01*
G01X33899Y-7682D02*
Y-17918D01*
G01X34293Y-7682D02*
Y-17918D01*
G01X34686Y-7682D02*
Y-17918D01*
G01X35080Y-7682D02*
Y-17918D01*
G01X35474Y-7682D02*
Y-17918D01*
G01X35868Y-7682D02*
Y-17918D01*
G01X40250Y15571D02*
X45250D01*
Y7579D01*
X40250D01*
Y15571D01*
G01X31671Y8075D02*
Y3075D01*
X23679D01*
Y8075D01*
X31671D01*
G01X47937Y35711D02*
Y30789D01*
X40063D01*
Y35711D01*
X47937D01*
G01X56986Y-7037D02*
X52064D01*
Y837D01*
X56986D01*
Y-7037D01*
G01X53050Y18671D02*
X58050D01*
Y10679D01*
X53050D01*
Y18671D01*
G54D13*
G01X-9048Y-32608D02*
G03I-492J0D01*
G01D02*
G03X-9540Y-32116I-492J0D01*
G01D02*
G03X-10032Y-32608I0J-492D01*
G01D02*
G03X-9540Y-33100I492J0D01*
G01D02*
G03X-9048Y-32608I0J492D01*
G01X2019Y26318D02*
G03I-492J0D01*
G01D02*
G03X1527Y26810I-492J0D01*
G01D02*
G03X1035Y26318I0J-492D01*
G01D02*
G03X1527Y25826I492J0D01*
G01D02*
G03X2019Y26318I0J492D01*
G01X42658Y-12800D02*
G03I-491J0D01*
G01D02*
G03I-491J0D01*
G54D14*
G01X-20560Y-28300D02*
X-24890D01*
G01X-20560D02*
X-24890D01*
G01X-2650Y-26112D02*
X-8950D01*
G01X-2650Y-26900D02*
X-8950D01*
G01X-2650Y-27687D02*
X-8950D01*
G01X-2650Y-29065D02*
Y-18435D01*
G01X-8950Y-29065D02*
Y-18435D01*
G01Y-29065D02*
Y-18435D01*
G01X-2650Y-29065D02*
Y-18435D01*
G01Y-27687D02*
X-8950D01*
G01X-2650Y-26900D02*
X-8950D01*
G01X-2650Y-26112D02*
X-8950D01*
G01X36261Y-17918D02*
X15789D01*
G01X36261Y-7682D02*
X15789D01*
G01X36261D02*
X15789D01*
G01X36261Y-17918D02*
X15789D01*
G01X8450Y5465D02*
Y1135D01*
G01Y5465D02*
Y1135D01*
G01X12452Y25531D02*
X8515Y21594D01*
G01X11665Y25531D02*
X8515Y22381D01*
G01X10877Y25531D02*
X8515Y23168D01*
G01X10090Y25531D02*
X8515Y23956D01*
G01X9302Y25531D02*
X8515Y24743D01*
G01Y13719D02*
Y25531D01*
X22885D01*
Y13719D01*
X8515D01*
G01D02*
Y25531D01*
X22885D01*
Y13719D01*
X8515D01*
G01X9302Y25531D02*
X8515Y24743D01*
G01X10090Y25531D02*
X8515Y23956D01*
G01X10877Y25531D02*
X8515Y23168D01*
G01X11665Y25531D02*
X8515Y22381D01*
G01X12452Y25531D02*
X8515Y21594D01*
G01X18800Y35615D02*
Y31285D01*
G01Y35615D02*
Y31285D01*
G01X40585Y11575D02*
X44915D01*
G01X40585D02*
X44915D01*
G01X27675Y7740D02*
Y3410D01*
G01Y7740D02*
Y3410D01*
G01X53385Y14675D02*
X57715D01*
G01X53385D02*
X57715D01*
M02*
