%FSLAX25Y25*%
%MOIN*%
G70*
G01*
G75*
%ADD10C,0.00500*%
%ADD11C,0.00667*%
%ADD12C,0.01000*%
%ADD13C,0.01600*%
%ADD14C,0.00800*%
D10*
X395000Y390000D02*
X405000D01*
X400000Y385000D02*
Y395000D01*
X395000Y300000D02*
X405000D01*
X400000Y295000D02*
Y305000D01*
X195000Y300000D02*
X205000D01*
X200000Y295000D02*
Y305000D01*
X195000Y390000D02*
X205000D01*
X200000Y385000D02*
Y395000D01*
X371728Y369000D02*
X375272D01*
X373500Y367228D02*
Y370772D01*
X371728Y379000D02*
X375272D01*
X373500Y377228D02*
Y380772D01*
X358401Y309059D02*
X362338D01*
X360370Y307090D02*
Y311028D01*
X358401Y353941D02*
X362338D01*
X360370Y351973D02*
Y355909D01*
X357417Y322642D02*
X363323D01*
X360370Y319689D02*
Y325594D01*
X357417Y340358D02*
X363323D01*
X360370Y337405D02*
Y343311D01*
X224228Y373000D02*
X227772D01*
X226000Y371228D02*
Y374772D01*
X214228Y373000D02*
X217772D01*
X216000Y371228D02*
Y374772D01*
X255100Y364500D02*
X257900D01*
X256500Y363100D02*
Y365900D01*
X318690Y365700D02*
X321190D01*
X319940Y364450D02*
Y366950D01*
X282850Y349300D02*
X285350D01*
X284100Y348050D02*
Y350550D01*
X273350Y313500D02*
X275850D01*
X274600Y312250D02*
Y314750D01*
M02*
