G04 ================== begin FILE IDENTIFICATION RECORD ==================*
G04 Layout Name:  leddriver.brd*
G04 Film Name:    BOTTOM*
G04 File Format:  Gerber RS274X*
G04 File Origin:  Cadence Allegro 16.5-P002*
G04 Origin Date:  Wed Apr 24 02:34:52 2013*
G04 *
G04 Layer:  ETCH/BOTTOM*
G04 Layer:  PIN/BOTTOM*
G04 Layer:  VIA CLASS/BOTTOM*
G04 *
G04 Offset:    (0.00 0.00)*
G04 Mirror:    No*
G04 Mode:      Positive*
G04 Rotation:  0*
G04 FullContactRelief:  Yes*
G04 UndefLineWidth:     6.00*
G04 ================== end FILE IDENTIFICATION RECORD ====================*
%FSLAX25Y25*MOIN*%
%IR0*IPPOS*OFA0.00000B0.00000*MIA0B0*SFA1.00000B1.00000*%
%ADD10C,.05*%
%ADD11C,.06*%
%ADD18C,.035*%
%ADD15C,.06102*%
%ADD12C,.065*%
%ADD17R,.06X.06*%
%ADD16R,.06102X.06102*%
%ADD13C,.0689*%
%ADD14R,.0689X.0689*%
%ADD19C,.02*%
%ADD20C,.03*%
%ADD21C,.015*%
%ADD22C,.025*%
G75*
%LPD*%
G75*
G36*
G01X-100900Y-20150D02*
Y-18400D01*
X-104121Y-18179D01*
X-103900Y-21400D01*
X-102150D01*
G03X-100900Y-20150I0J1250D01*
G37*
G36*
G01X-91512Y-22284D02*
X-90097Y-23697D01*
X-87488Y-21400D01*
X-90097Y-19103D01*
X-91512Y-20516D01*
G03Y-22284I884J-884D01*
G37*
G36*
G01X-53790Y47507D02*
X-51016Y50755D01*
X-54461Y54512D01*
X-57906Y50755D01*
X-55132Y47507D01*
G03X-53790I671J1054D01*
G37*
G36*
G01X-47768Y54871D02*
X-51016Y57645D01*
X-54774Y54200D01*
X-51016Y50755D01*
X-47768Y53529D01*
G03Y54871I-1054J671D01*
G37*
G36*
G01X-29275Y54200D02*
X-26800D01*
X-24909Y55914D01*
X-27321Y57920D01*
X-30159Y55084D01*
X-29275Y54200D01*
G37*
G36*
G01X15330Y52088D02*
X16921Y53679D01*
X14800Y55988D01*
X12679Y53679D01*
X14270Y52088D01*
G03X15330I530J530D01*
G37*
G36*
G01X92316Y5891D02*
X91964Y5537D01*
X93200Y3988D01*
X94436Y5537D01*
X94084Y5891D01*
G03X92316I-884J-884D01*
G37*
G54D10*
X-112300Y-62300D03*
Y62600D03*
X112700Y-62300D03*
Y62600D03*
G54D20*
G01X-103900Y-8400D02*
X-111100D01*
X-114100Y-11400D01*
Y-27000D01*
X-88700Y-52400D01*
G01X-102400Y22000D02*
Y-6900D01*
X-103900Y-8400D01*
G01X-102400Y32000D02*
X-101961Y32439D01*
X-86600D01*
G01X-88700Y-52400D02*
X-77900Y-63200D01*
X-32100D01*
X-26500Y-57600D01*
G01X-87139Y54200D02*
Y32978D01*
X-86600Y32439D01*
G01X-66400Y3605D02*
X-51695D01*
X-48500Y6800D01*
G01X-47800Y30400D02*
X-39700Y22300D01*
X-23000D01*
G01X-26500Y-57600D02*
Y-42895D01*
G01X39200Y-57900D02*
X38900Y-57600D01*
X-26500D01*
G01X-23000Y22300D02*
X19000D01*
X39200Y42500D01*
Y47700D01*
G01X-23000Y22300D02*
Y48000D01*
X-15200Y55800D01*
G01X78950Y34700D02*
Y49700D01*
X61150Y67500D01*
X-3500D01*
X-15200Y55800D01*
G01X30600Y-7400D02*
X39200D01*
G01X83200Y4300D02*
X79200Y300D01*
Y-22700D01*
X97800Y-41300D01*
Y-59200D01*
X94400Y-62600D01*
X43900D01*
X39200Y-57900D01*
G01Y-7400D02*
Y-57900D01*
G01Y17700D02*
Y-7400D01*
G01X69200Y17700D02*
Y24950D01*
X78950Y34700D01*
G01X106800D02*
X78950D01*
G01X88200Y4300D02*
Y-12400D01*
X90000Y-14200D01*
G01X106800Y24700D02*
X93200Y11100D01*
G54D11*
X-103900Y-18400D03*
Y-8400D03*
X-102400Y22000D03*
Y32000D03*
X-88700Y-52400D03*
X-78700D03*
X-68700D03*
X-58700D03*
X-25200Y55800D03*
X-15200D03*
X-5200D03*
X4800D03*
X14800D03*
X30600Y-7400D03*
X39200Y47700D03*
X49200Y17700D03*
Y47700D03*
X60600Y-7400D03*
X59200Y17700D03*
Y47700D03*
X69200Y17700D03*
Y47700D03*
X106800Y24700D03*
Y34700D03*
G54D21*
G01X20000Y40695D02*
X14800Y45895D01*
Y55800D01*
G54D12*
X-87800Y-21400D03*
X-47800D03*
X-48500Y6800D03*
X-47800Y30400D03*
X-8500Y6800D03*
X-7800Y30400D03*
X21900Y-46500D03*
X22800Y-27300D03*
X61900Y-46500D03*
X62800Y-27300D03*
X90000Y-54200D03*
Y-14200D03*
G54D22*
G01X-103900Y-18400D02*
X-100900Y-21400D01*
X-87800D01*
G01X-86600Y-239D02*
Y-20200D01*
X-87800Y-21400D01*
G01X-66400Y29195D02*
X-54461Y41134D01*
Y54200D01*
G01X-25200Y55800D02*
X-26800Y54200D01*
X-54461D01*
G01X93200Y11100D02*
Y4300D01*
G54D13*
X-86600Y-239D03*
X-87139Y54200D03*
G54D14*
X-86600Y32439D03*
X-54461Y54200D03*
G54D15*
X-66400Y3605D03*
X-26500Y-42895D03*
X4800Y37595D03*
X20000Y15105D03*
G54D16*
X-66400Y29195D03*
X-26500Y-17305D03*
X4800Y12005D03*
X20000Y40695D03*
G54D17*
X39200Y17700D03*
G54D18*
X83200Y4300D03*
X93200D03*
X88200D03*
G54D19*
G01X-8500Y6800D02*
X-18400Y-3100D01*
X-47200D01*
X-78700Y-34600D01*
Y-52400D01*
G01X-68700D02*
X-33605Y-17305D01*
X-26500D01*
G01X-58700Y-52400D02*
X-46000D01*
X-14400Y-20800D01*
Y-10200D01*
X-16900Y-7700D01*
X-34100D01*
X-47800Y-21400D01*
G01X-7800Y30400D02*
Y53200D01*
X-5200Y55800D01*
G01X4800Y12005D02*
Y-29400D01*
X21900Y-46500D01*
G01X4800Y37595D02*
Y55800D01*
G01D02*
Y60300D01*
X7700Y63200D01*
X33700D01*
X49200Y47700D01*
G01X22800Y-27300D02*
X20000Y-24500D01*
Y15105D01*
G01X49200Y17700D02*
Y4000D01*
X60600Y-7400D01*
G01X59200Y47700D02*
X49200Y37700D01*
Y17700D01*
G01X61900Y-46500D02*
X62800Y-45600D01*
Y-27300D01*
G01X60600Y-7400D02*
Y-11900D01*
X62800Y-14100D01*
Y-27300D01*
G01X59200Y17700D02*
X72400Y4500D01*
Y-36600D01*
X90000Y-54200D01*
M02*
